<?xml version="1.0" encoding="iso-8859-1"?>
<!-- Generator: Adobe Illustrator 19.0.0, SVG Export Plug-In . SVG Version: 6.00 Build 0)  -->
<svg version="1.1" id="Capa_1" xmlns="http://www.w3.org/2000/svg" xmlns:xlink="http://www.w3.org/1999/xlink" x="0px" y="0px"
	 viewBox="0 0 512 512" style="enable-background:new 0 0 512 512;" xml:space="preserve">
<g>
	<g>
		<path d="M271,0v241h61.76c4.195-71.574,38.13-136.135,89.412-179.916C381.21,26.14,328.112,3.347,271,0z"/>
	</g>
</g>
<g>
	<g>
		<path d="M68.218,81.98C29.225,124.043,3.567,180.136,0,241h149.24C145.025,177.521,114.305,120.297,68.218,81.98z"/>
	</g>
</g>
<g>
	<g>
		<path d="M443.782,81.98c-46.088,38.317-76.807,95.541-81.022,159.02H512C508.433,180.136,482.775,124.043,443.782,81.98z"/>
	</g>
</g>
<g>
	<g>
		<path d="M89.828,61.084C141.11,104.865,175.045,169.426,179.24,241H241V0C183.888,3.347,130.79,26.14,89.828,61.084z"/>
	</g>
</g>
<g>
	<g>
		<path d="M362.76,271c4.215,63.479,34.935,120.703,81.022,159.02C482.775,387.957,508.433,331.864,512,271H362.76z"/>
	</g>
</g>
<g>
	<g>
		<path d="M332.76,271H271v241c57.112-3.347,110.208-26.14,151.172-61.084C370.89,407.135,336.955,342.574,332.76,271z"/>
	</g>
</g>
<g>
	<g>
		<path d="M0,271c3.567,60.864,29.225,116.957,68.218,159.02c46.088-38.317,76.807-95.541,81.022-159.02H0z"/>
	</g>
</g>
<g>
	<g>
		<path d="M179.24,271c-4.195,71.574-38.13,136.135-89.412,179.916C130.792,485.86,183.888,508.653,241,512V271H179.24z"/>
	</g>
</g>
<g>
</g>
<g>
</g>
<g>
</g>
<g>
</g>
<g>
</g>
<g>
</g>
<g>
</g>
<g>
</g>
<g>
</g>
<g>
</g>
<g>
</g>
<g>
</g>
<g>
</g>
<g>
</g>
<g>
</g>
</svg>
